<svg viewBox="0 0 211.98 235.15" xmlns="http://www.w3.org/2000/svg"><path fill="none" pointer-events="none" d="M0 0h211.98v235.15H0z"/><path class="st25" d="M198.516 46.787c-6.4-26.6-45.6-41.7-93-41.7s-86.6 15.1-93 41.7c-1.2 2.2-2 4.8-2 7.6v84.8c0 8.6 7 15.6 15.6 15.6h158.8c8.6 0 15.6-7 15.6-15.6v-84.8c0-2.7-.7-5.3-2-7.6z" fill="#facc00"/><path class="st8" d="M170.916 42.487c8.6 0 15.6 7 15.6 15.6v18.9c0 8.6-7 15.6-15.6 15.6h-65.4v-50.1h65.4z" fill="#fff"/><path class="st26" d="M156.516 218.787c0 7.7 6.3 14 14 14h13.1c7.7 0 14-6.3 14-14v-23.8c0-7.7-6.3-14-14-14h-13.1c-7.7 0-14 6.3-14 14v23.8z" fill="#2f2823"/><path class="st8" d="M40.216 42.487c-8.6 0-15.6 7-15.6 15.6v18.9c0 8.6 7 15.6 15.6 15.6h65.4v-50.1h-65.4z" fill="#fff"/><path d="M105.616 38.587h-4.5v60.9h8.9v-60.9z" class="st25" fill="#facc00"/><path class="st26" d="M54.716 218.787c0 7.7-6.3 14-14 14h-13.1c-7.7 0-14-6.3-14-14v-23.8c0-7.7 6.3-14 14-14h13.1c7.7 0 14 6.3 14 14v23.8z" fill="#2f2823"/><defs transform="translate(-719.584 -136.113)"><path id="a7873c48f-370d-4289-af1c-f8db46a7ad8a" d="M890.5 178.6c8.6 0 15.6 7 15.6 15.6v18.9c0 8.6-7 15.6-15.6 15.6h-65.4v-50.1h65.4z" fill="#000000"/></defs><path class="st27" d="M198.516 129.787c-6.4-26.6-45.6-42.5-93-42.5s-86.6 15.8-93 42.5c-1.2 2.2-2 4.8-2 7.6v45.1c0 8.6 7 15.6 15.6 15.6h158.8c8.6 0 15.6-7 15.6-15.6v-45.1c0-2.7-.7-5.3-2-7.6z" fill="#faaf00"/><path d="M187.216 136.587a16.1 16.1 0 0 1-16.1 16.1 16.1 16.1 0 0 1-16.1-16.1 16.1 16.1 0 0 1 16.1-16.1 16.1 16.1 0 0 1 16.1 16.1z" class="st28" fill="#fffad9"/><path class="st29" d="M161.716 164.187c0 2.5 2 4.6 4.6 4.6h11.1c2.5 0 4.6-2 4.6-4.6 0-2.5-2-4.6-4.6-4.6h-11.1c-2.5 0-4.6 2.1-4.6 4.6z" fill="#e34e45"/><path class="st24" d="M202.216 187.487H9.016c-3.2 0-5.7 2.6-5.7 5.7 0 3.2 2.6 5.7 5.7 5.7h193.2c3.2 0 5.7-2.6 5.7-5.7 0-3.2-2.6-5.7-5.7-5.7z" fill="#63584f"/><path d="M56.216 136.587a16.1 16.1 0 0 1-16.1 16.1 16.1 16.1 0 0 1-16.1-16.1 16.1 16.1 0 0 1 16.1-16.1 16.1 16.1 0 0 1 16.1 16.1z" class="st28" fill="#fffad9"/><path class="st29" d="M49.416 164.187c0 2.5-2 4.6-4.6 4.6h-11.1c-2.5 0-4.6-2-4.6-4.6 0-2.5 2-4.6 4.6-4.6h11.1c2.6 0 4.6 2.1 4.6 4.6z" fill="#e34e45"/><path class="st27" d="M105.616 10.087c-36.3 0-67.4 9.4-80.7 26.6h161.4c-13.4-17.2-44.5-26.6-80.7-26.6z" fill="#faaf00"/><path class="st25" d="M149.516 158.087c0 9.1-7.4 16.5-16.5 16.5h-56.6c-9.1 0-16.5-7.4-16.5-16.5v-21c0-9.1 7.4-16.5 16.5-16.5h56.7c9.1 0 16.5 7.4 16.5 16.5v21z" fill="#facc00"/><g><path class="st30" d="M144.316 144.487h-77.4c-2.2 0-4 1.6-4 3.5s1.8 3.5 4 3.5h77.4c2.2 0 4.1-1.6 4.1-3.5-.1-1.9-1.9-3.5-4.1-3.5zM144.316 155.287h-77.4c-2.2 0-4 1.6-4 3.5s1.8 3.5 4 3.5h77.4c2.2 0 4.1-1.6 4.1-3.5-.1-1.9-1.9-3.5-4.1-3.5zM66.916 140.687h77.4c2.2 0 4.1-1.6 4.1-3.5s-1.8-3.5-4.1-3.5h-77.4c-2.2 0-4 1.6-4 3.5-.1 2 1.7 3.5 4 3.5z" fill="#403833"/></g></svg>